<?xml version="1.0" standalone="no"?><!DOCTYPE svg PUBLIC "-//W3C//DTD SVG 1.1//EN" "http://www.w3.org/Graphics/SVG/1.1/DTD/svg11.dtd"><svg t="1729166155813" class="icon" viewBox="0 0 1024 1024" version="1.1" xmlns="http://www.w3.org/2000/svg" p-id="4252" xmlns:xlink="http://www.w3.org/1999/xlink" width="200" height="200"><path d="M704 280.4L513.8 467 324.2 280.4c-12-12-31.2-12-42.6 0-12 12-12 30.6 0 42.6l210 206.4c6 6 14.4 9 22.8 8.4 7.8 0.6 15.6-2.4 22.2-8.4l210-206.4c12-12 12-30.6 0-42.6-12-11.4-31.2-11.4-42.6 0zM812 92H212c-66 0-120 54-120 120v600c0 66 54 120 120 120h600c66 0 120-54 120-120V212c0-66-54-120-120-120z m60 720c0 33-27 60-60 60H212c-33 0-60-27-60-60V212c0-33 27-60 60-60h600c33 0 60 27 60 60v600zM704 520.4L514.4 707 324.2 520.4c-12-12-31.2-12-42.6 0-12 12-12 30.6 0 42.6l210 206.4c6 6 14.4 9 22.8 8.4 8.4 0.6 16.2-2.4 22.8-8.4l210-206.4c12-12 12-30.6 0-42.6-12.6-11.4-31.8-11.4-43.2 0z m0 0" p-id="4253" fill="#ffffff"></path></svg>