<?xml version="1.0" standalone="no"?><!DOCTYPE svg PUBLIC "-//W3C//DTD SVG 1.1//EN" "http://www.w3.org/Graphics/SVG/1.1/DTD/svg11.dtd"><svg t="1729166693292" class="icon" viewBox="0 0 1024 1024" version="1.1" xmlns="http://www.w3.org/2000/svg" p-id="4470" xmlns:xlink="http://www.w3.org/1999/xlink" width="200" height="200"><path d="M512.007508 0a511.992591 511.992591 0 1 0 511.99259 511.690173A512.295008 512.295008 0 0 0 512.007508 0z m0 961.384788a449.694615 449.694615 0 1 1 449.694614-449.694615 450.299449 450.299449 0 0 1-449.694614 449.694615z" fill="#ffffff" p-id="4471"></path><path d="M724.002077 411.28761l-196.268867 196.268867L332.97643 411.28761a30.241736 30.241736 0 1 0-44.152934 43.850517l211.692152 211.692152a25.100641 25.100641 0 0 0 4.233843 6.653182 34.777996 34.777996 0 0 0 46.269856 0 25.100641 25.100641 0 0 0 4.233843-6.653182l211.692152-211.692152a30.241736 30.241736 0 1 0-43.850517-43.850517z" fill="#ffffff" p-id="4472"></path></svg>